<?xml version="1.0" encoding="utf-8"?>
<!-- Generator: Adobe Illustrator 27.0.1, SVG Export Plug-In . SVG Version: 6.00 Build 0)  -->
<svg version="1.1" id="Layer_1_copy" xmlns="http://www.w3.org/2000/svg" xmlns:xlink="http://www.w3.org/1999/xlink" x="0px"
	 y="0px" viewBox="0 0 100 90" style="enable-background:new 0 0 100 90;" xml:space="preserve">
<style type="text/css">
	.st0{fill:#FFFFFF;}
</style>
<path d="M5.1,4.5c1.5,0.1,14.3,9,16.4,10.2c2.1,1.3,8.4,4.8,8.4,4.8s5.9-2.4,8.8-2.8s7.3,0.8,10.5,1c3.2,0.1,9.9-0.7,12.9-0.4
	c2.9,0.3,7.3,1.4,7.3,1.4s5.2-3.2,7.2-4.8c2.1-1.5,16.3-9,18.4-9c1.5,0,1.9,0.2,1.8,1.5c-0.1,1.8-4.8,13.1-5.7,14.5
	c-0.8,1.4,0.1,2.9-0.4,4.4c-0.6,1.5-2.1,2.6-2.4,4c-0.3,1.4,0.7,2.9,0.8,5.2c0.1,2.2-1.2,6-1.2,6s4.6,8.7,4.6,14.5s-5.7,14.5-8.8,18
	c-3.1,3.5-12.3,7.7-15.7,8c-3.4,0.3-5.7-1.3-7.4-0.4c-1.7,0.8-1.7,2.1-3.8,3.1c-2.1,1-13.8,0.8-16.4,0.1c-2.5-0.7-3.9-3.6-5.6-3.8
	c-1.7-0.1-1.8,1-3.8,0.8c-2-0.1-8.7-2.2-12.3-4.6c-3.6-2.4-12-15.4-12.3-21.4c-0.3-6,4.3-14,4.3-14s-2.8-5.5-2.7-7.1
	c0.1-1.7,1.4-3.9,1-5.9c-0.4-2-2-1.3-2.1-2.9c-0.1-1.7,0.7-1.7,0-3.5S2.9,8.2,3.1,6.2C3.4,4.5,3.6,4.4,5.1,4.5z M22.9,47.5
	c0,0-0.5,7,5.5,8.1c5.5,1,9-0.6,9.2-2.1c0.6-3.1-3.9-6.2-3.9-6.2s-0.6,5.3-3.9,5.2c-3.4-0.1-1.8-6.3-1.8-6.3L22.9,47.5z M71,47.2
	c0,0,1.6,6.2-1.9,6.3c-3.4,0.1-4-5.2-4-5.2s-4.6,3.1-4,6.2c0.3,1.5,3.9,3.1,9.4,2.1c6.1-1.1,5.6-8.1,5.6-8.1L71,47.2z M49.4,34.1
	c-3.9-0.4-3.6,15.7-5.7,18.9c-2.3,3.5-3.7,7.4-6.3,9.3c-2.9,2.2-11.6,2.9-12.6,8.4C23.9,76,30,79,32,79.2c2,0.3,1.7-0.6,3.4-0.1
	c1.7,0.4,3.8,3.1,5.5,3.6c1.7,0.6,13.8,0.7,15.6,0c2.4-0.9,1.8-1.9,3.5-2.8c2.2-1.1,2.8-0.3,4.4-0.6c2.5-0.4,7.5-2.9,6.4-7.8
	c-1.2-5.5-9.6-7.2-11.3-9.3c-1.7-2.1-3.8-6.7-4.9-10.2C53.5,48.5,53.4,34.5,49.4,34.1z M41.1,63.4l2,2c0,0,2-0.1,2.5,0.4
	c0.4,0.6,0,1,0,1l2.3,1.6l0,1.7c0,0-4.7,1.2-5.9,2.3c-1.2,1.1-3.4,4.5-3.4,4.7s0.3,0.1,0.6,0c0.3-0.1,1.6-3.2,3-4.3
	c1.4-1,5.8-2.1,5.8-2.1s3.6,1.1,5.2,2.3c1.5,1.2,4.1,4.8,4.4,4.8c0.3,0.1,0.5,0.1,0.5-0.3s-3-3.8-4.5-5c-1.6-1.2-5-2.3-5-2.3v-1.8
	l2.2-1.4c0,0-0.2-0.3,0.1-0.9c0.3-0.6,2.1-0.2,2.1-0.2l2.8-1.6l-2.6,1.1l-0.5-1.8l0,1.5c0,0-1.8-0.4-2.4,0.3
	c-0.6,0.7-0.1,1.5-0.1,1.5l-1.6,0.9c0,0,0.2-2.6-0.2-2.6c-0.4,0-0.3,2.6-0.3,2.6l-1.8-1c0,0,0.9-0.7,0.3-1.4
	c-0.7-0.7-2.7-0.3-2.7-0.3l0.2-1.6l-0.7,1.5L41.1,63.4z M22.4,73.2c-1.2-0.8-2.3-0.2-4.2-2.1c-1.9-1.8-6.4-13.5-6.3-18.3
	c0.1-4.8,4.6-9.3,6.9-12.6c2.3-3.3,8.1-8.1,10.4-9.8c2.3-1.7,9.4-4.3,10.8-4.5s1.9,2,1.9,2l1.4-5.9l2.2,6.2l1.5-6.6l1.6,7.4l2-8.2
	l1.3,8l1.8-6.9l2.1,6.8l1.4-7l1.8,5.2c0,0,1.1-1.9,2.3-1.8s6.4,3,8.4,4.5s7.3,5.8,8.8,6.9c1.5,1.1,7.9,3.9,9,13.7
	c1.1,9.8-7.7,20.9-9.5,22.4c-1.8,1.5-4.8,1.7-6.4,3.5c-1.6,1.8-4.9,3.9-4.9,3.9s2.1,0.4,5.2-0.7c2.9-1,6.8-3.4,8.4-4.6
	c4.5-3.2,11.6-13.3,11.3-19.4c-0.4-7.9-5-15.2-5-15.2s1.4-6.4,1-7c-0.5-0.6-2.3,0.3-2.3,0.3l2-2.3l-3.6,1.9l3-3.1l-5.2,2.8l4.8-4
	l-4.5,2.3l2.4-2.4l-3.5,1.8l3.4-3.6l-4.3,3.4l2.5-3.7L77.9,29l4.2-5.2l-5.3,4.4l3.4-4.4l-4.3,3.4l2.7-4.1L75,26l4.6-5.1L73.8,25
	l3.9-4.4L73,23.7l4.8-5l-5,2.4l2.6-3.3l-3.8,1.8c0,0-1.7,0.4-2.1,0.4c-0.4,0-4.4-1.1-7.6-1.4c-3.2-0.4-7.6,0.3-10.9,0.3
	c-3.4,0-8-1.2-11.5-1c-3.5,0.2-8.8,2.7-8.8,2.7l-2.7-0.3l0.8,1.7l-3.6-1.4l2.5,2.8l-5.1-2.5l3.6,3.7l-3.9-2l2.4,3.3L21,23.8l2.2,3.2
	l-3.8-2.2l2.2,3.5l-3.9-2.6l2.3,4l-4.6-3l3.4,4.3l-4.2-1.7l2.7,3l-4.2-1.3l2.9,3.4l-4.4-1.9l2.8,2.9l-2.7-1l2,2l-2.6,0.1l1.6,1.2
	l-1.5,0.2l1.1,0.8c0,0-0.4,1-0.4,1.2c0.1,1.6-4.1,8.4-4.3,13.8c-0.2,5.5,6.8,16.6,10.9,20.3c4.1,3.6,8.4,4.3,8.4,4.3
	s-0.7-1.5-1.7-2.6C24.2,74.8,23.6,74,22.4,73.2z"/>
<g>
	<path class="st0" d="M69.1,53.5c-3.4,0.1-4-5.2-4-5.2s-4.6,3.1-4,6.2c0.3,1.5,3.9,3.1,9.4,2.1c6.1-1.1,5.6-8.1,5.6-8.1L71,47.2
		C71,47.2,72.6,53.4,69.1,53.5z"/>
	<path class="st0" d="M22.9,47.5c0,0-0.5,7.1,5.5,8.1c5.5,1,9-0.6,9.2-2.1c0.6-3.1-3.9-6.2-3.9-6.2s-0.6,5.3-3.9,5.2
		s-1.8-6.3-1.8-6.3L22.9,47.5z"/>
	<path class="st0" d="M70.8,71.5c-1.2-5.5-9.6-7.2-11.3-9.3c-1.7-2.1-3.8-6.7-4.9-10.2c-1.1-3.5-1.3-17.5-5.2-17.9
		c-3.9-0.4-3.6,15.7-5.7,18.9c-2.3,3.5-3.7,7.4-6.3,9.3c-2.9,2.2-11.6,2.9-12.6,8.4C23.9,76,30,79,32,79.2c2,0.3,1.7-0.6,3.4-0.1
		c1.7,0.4,3.8,3.1,5.5,3.6c1.7,0.6,13.8,0.7,15.6,0c2.4-0.9,1.8-1.9,3.5-2.8c2.2-1.1,2.8-0.4,4.4-0.6C66.8,78.9,71.8,76.4,70.8,71.5
		z M57.6,77.8c-0.3-0.1-2.9-3.6-4.4-4.8c-1.5-1.2-5.2-2.3-5.2-2.3s-4.5,1.1-5.8,2.1c-1.4,1-2.7,4.1-3,4.3c-0.3,0.1-0.6,0.2-0.6,0
		s2.1-3.6,3.4-4.7c1.2-1.1,5.9-2.3,5.9-2.3l0-1.7l-2.3-1.6c0,0,0.4-0.4,0-1c-0.4-0.6-2.5-0.4-2.5-0.4l-2-2l2,1.5l0.7-1.5l-0.2,1.6
		c0,0,2.1-0.4,2.7,0.3c0.7,0.7-0.3,1.4-0.3,1.4l1.8,1c0,0-0.1-2.6,0.3-2.6c0.4,0,0.2,2.6,0.2,2.6l1.6-0.9c0,0-0.5-0.8,0.1-1.5
		c0.6-0.7,2.4-0.3,2.4-0.3l0-1.5l0.5,1.8l2.6-1.1l-2.8,1.6c0,0-1.8-0.4-2.1,0.2c-0.3,0.6-0.1,0.9-0.1,0.9l-2.2,1.4v1.8
		c0,0,3.5,1.1,5,2.3c1.6,1.2,4.5,4.7,4.5,5S57.9,77.9,57.6,77.8z"/>
	<path class="st0" d="M87.6,33.1c-0.5-0.6-2.3,0.3-2.3,0.3l2-2.3l-3.6,1.9l3-3.1l-5.2,2.8l4.8-4l-4.5,2.3l2.4-2.4l-3.5,1.8l3.4-3.6
		l-4.3,3.4l2.5-3.7L77.9,29l4.2-5.2l-5.3,4.4l3.4-4.4l-4.3,3.4l2.7-4.1L75,26l4.6-5.1L73.8,25l3.9-4.4L73,23.7l4.9-5l-5,2.4l2.6-3.3
		l-3.8,1.8c0,0-1.7,0.4-2.1,0.4c-0.4,0-4.4-1.1-7.6-1.4c-3.2-0.4-7.6,0.3-10.9,0.3c-3.4,0-8-1.2-11.5-1c-3.5,0.2-8.8,2.7-8.8,2.7
		l-2.7-0.3l0.8,1.7l-3.6-1.4l2.5,2.8l-5.1-2.5l3.6,3.7l-3.9-2l2.4,3.3L21,23.8l2.2,3.2l-3.8-2.2l2.2,3.5l-3.9-2.6l2.3,4l-4.6-3
		l3.4,4.3l-4.2-1.7l2.7,3l-4.2-1.3l2.9,3.4l-4.4-1.9l2.8,2.9l-2.7-1l2,2l-2.6,0.1l1.6,1.2l-1.5,0.2l1.1,0.8c0,0-0.4,1-0.4,1.2
		c0.1,1.6-4.1,8.4-4.3,13.8c-0.2,5.5,6.8,16.6,10.9,20.3c4.2,3.6,8.4,4.3,8.4,4.3s-0.7-1.5-1.7-2.6c-1-1.1-1.6-1.9-2.8-2.7
		c-1.2-0.8-2.3-0.2-4.2-2.1c-1.9-1.8-6.4-13.5-6.3-18.3c0.1-4.8,4.6-9.3,6.9-12.6c2.3-3.3,8.1-8.1,10.4-9.8
		c2.3-1.7,9.4-4.3,10.8-4.5c1.4-0.1,1.9,2,1.9,2l1.4-5.9l2.2,6.2l1.5-6.6l1.6,7.4l2-8.2l1.3,8l1.8-6.9l2.1,6.8l1.4-7l1.8,5.2
		c0,0,1.1-1.9,2.3-1.8c1.3,0,6.4,3,8.4,4.5c2,1.5,7.3,5.8,8.8,6.9c1.5,1.1,7.9,3.9,9,13.7c1.1,9.8-7.7,20.9-9.5,22.4
		c-1.8,1.5-4.8,1.7-6.4,3.5c-1.6,1.8-4.9,3.9-4.9,3.9s2.1,0.4,5.2-0.7c2.9-1,6.8-3.4,8.4-4.6c4.5-3.2,11.6-13.3,11.3-19.4
		c-0.4-7.9-5-15.2-5-15.2S88.1,33.6,87.6,33.1z"/>
</g>
</svg>
