<svg class="logo-svg" xmlns="http://www.w3.org/2000/svg" fill="white" viewBox="0 0 42 35.64" height="65px"><path class="logo" d="m23.69,21.32c-.21.48-.34.96-.44,1.41-.25,1.13-.87,2.01-1.68,2.77-1.2,1.13-2.67,1.62-4.31,1.62-2.96,0-5.93,0-8.89,0-.72,0-.77-.04-.77-.75,0-6.37,0-12.74,0-19.11,0-.71.04-.75.76-.75,2.95,0,5.9,0,8.85,0,1.1,0,2.11.33,3.02.95.32.22.43.46.19.8-.5.72-.81,1.57-.94,2.38-.12.79-.18,1.66.13,2.47.03.08.1.25.17.17.15-.16.43-.16.49-.42.03-.12-.05-.18-.16-.2-.34-.05-.22-.3-.19-.49.28-2.04,1.29-3.61,3.03-4.72,2.88-1.83,7.41-1.65,10.09.45,1.41,1.11,2.16,2.59,2.28,4.38.04.51-.08.63-.58.64-1.21,0-2.42,0-3.63,0-.4,0-.7-.17-.84-.56-.25-.74-.78-1.17-1.51-1.37-1.05-.29-2.06-.23-3.03.32-.48.27-.7.7-.75,1.23-.05.52.14.92.58,1.21.71.47,1.51.52,2.32.6,1.52.15,2.99.43,4.41,1.02,3.03,1.25,4,4.37,3.14,7.13-.56,1.8-1.79,3.03-3.43,3.85-2.89,1.44-5.81,1.44-8.7-.06-.49-.25-.49-.28-.2-.74.79-1.24.83-2.62.75-4.02,0-.04-.02-.08-.04-.12-.01-.02-.04-.03-.12-.1Zm-8.54-2.71c-.63,0-1.25,0-1.88,0-.65,0-.74.09-.74.76,0,.79,0,1.59,0,2.38,0,.62.08.7.69.71,1.17,0,2.34,0,3.51,0,1.56-.01,2.43-1.38,1.82-2.82-.29-.67-.77-1.03-1.52-1.03-.63,0-1.25,0-1.88,0Zm12.5,4c.8-.07,1.58-.12,2.28-.51.47-.27.72-.68.71-1.23,0-.53-.26-.88-.73-1.12-.51-.25-1.04-.39-1.59-.45-1.59-.19-3.19-.27-4.71-.84-.29-.11-.35.04-.26.3.09.28.2.55.26.83.11.48.3.7.78.65.32-.03.38.1.42.36.09.58.36,1.07.85,1.43.6.45,1.31.51,1.99.59Zm-12.96-8.59c.53,0,1.05,0,1.58,0,.04,0,.08,0,.12,0,.78-.07,1.3-.65,1.31-1.45,0-.9-.47-1.5-1.3-1.53-1.12-.03-2.25-.01-3.37-.01-.35,0-.5.18-.5.52,0,.65,0,1.3,0,1.96,0,.37.17.53.54.53.54,0,1.08,0,1.62,0Z"></path></svg>
