<svg xmlns="http://www.w3.org/2000/svg" viewBox="0 0 104 36" fill="none" height="28" width="91" class="css-1uerw9j">
  <path
    d="M71.8,27c-1.8,0-3.3-0.4-4.7-1c-1.3-0.6-2.4-1.7-3.2-2.9c-0.8-1.3-1.1-2.7-1.1-4.2V8.6H68v10.1c0,0.8,0.2,1.4,0.5,2
	c0.3,0.6,0.8,1,1.3,1.3c0.6,0.3,1.3,0.5,1.9,0.5c0.8,0,1.4-0.1,2-0.5c0.6-0.3,1.1-0.8,1.4-1.3c0.3-0.6,0.5-1.2,0.5-2V8.6h5.1v10.2
	c0,3-1.6,5.7-4.3,7.1C75.2,26.6,73.6,27,71.8,27z M86.2,26.8v-4.3h4.2v-9.6h-4.2V8.6h13.5v4.3h-4.2v9.6h4.2v4.3H86.2L86.2,26.8z M43.8,25.6c-1.5-1.1-2.2-2.6-2.3-4.6h5.4c0.1,1.2,1.1,1.9,2.8,1.9c0.8,0,1.4-0.1,1.8-0.4c0.4-0.3,0.7-0.6,0.7-1
  c0-0.5-0.3-0.8-0.8-1.1c-0.5-0.3-1.4-0.5-2.7-0.7c-2.2-0.3-4-0.9-5.2-1.8c-1.2-0.9-1.8-2.1-1.8-3.8c0-1.2,0.3-2.2,1-3.1
  c0.7-0.9,1.6-1.5,2.8-2c1.2-0.5,2.5-0.7,4.1-0.7c2.3,0,4.1,0.5,5.5,1.6c1.4,1.1,2.2,2.5,2.3,4.3H52c-0.1-0.5-0.4-1-0.8-1.2
  c-0.4-0.3-1-0.4-1.8-0.4c-0.7,0-1.3,0.1-1.7,0.4c-0.4,0.2-0.6,0.6-0.6,1c0,0.4,0.2,0.8,0.7,1s1.4,0.4,2.7,0.6
  c2.3,0.3,4.1,0.9,5.3,1.8c1.2,0.9,1.9,2.2,1.9,3.9c0,1.2-0.3,2.3-1,3.2c-0.7,0.9-1.6,1.6-2.9,2c-1.2,0.5-2.6,0.7-4.1,0.7
  C47.2,27.2,45.2,26.7,43.8,25.6z"
    fill="currentColor"
  />
  <path
    d="M21.2,10.1c0,0.5,0.4,1,1,1c0.2,0,0.3,0,0.5-0.1l2.9-1.7c0.3-0.2,0.5-0.5,0.5-0.8V4.9c0-0.5-0.4-1-1-1
	c-0.2,0-0.3,0-0.5,0.1l-2.9,1.7c-0.3,0.2-0.5,0.5-0.5,0.8L21.2,10.1L21.2,10.1L21.2,10.1z M4,10.2L4,10.2c-0.2,0.2-0.2,0.3-0.2,0.7
	v3.6v-0.1c0,0.5,0.2,1.2,1,1C5.4,15,7.1,14,7.1,14l2.6-1.5c0.1-0.1,0.3-0.1,0.5-0.1c0.5,0,1,0.4,1,1l0,5l0,0c0,0,0,0,0,0
	c0,0,0,0,0,0l-7.4,4.2c0,0,0,0,0,0v0c0,0,0,0,0,0c0,0,0,0,0,0v5.1c0,0.3,0.2,0.7,0.5,0.8l9,5.1c0.3,0.2,0.7,0.2,1,0l11.4-6.6
	c0.3-0.2,0.5-0.5,0.5-0.8V16.2c0-0.2,0-0.3-0.1-0.5c-0.3-0.5-0.9-0.6-1.3-0.4l-3,1.7c-0.3,0.2-0.5,0.5-0.5,0.8l0,5.6
	c0,0.3-0.2,0.7-0.5,0.8l-6.4,3.7c-0.3,0.2-0.7,0.2-1,0l-3-1.7C10,26.3,9.9,26.1,9.8,26c-0.3-0.5-0.1-1.1,0.4-1.3l5.5-3.2
	c0.3-0.2,0.5-0.5,0.5-0.8V4.8c0-0.2,0-0.3-0.1-0.5c-0.3-0.5-0.9-0.6-1.3-0.4L4.2,10"
    fill="#007FFF"
  />
</svg>
