<?xml version="1.0" encoding="utf-8"?>
<!-- Generator: Adobe Illustrator 27.6.1, SVG Export Plug-In . SVG Version: 6.00 Build 0)  -->
<svg version="1.1" xmlns="http://www.w3.org/2000/svg" xmlns:xlink="http://www.w3.org/1999/xlink" x="0px" y="0px"
	 viewBox="0 0 500 500" style="enable-background:new 0 0 500 500;" xml:space="preserve">
<style type="text/css">
	.st0{fill:#FFFFFF;}
	.st1{fill:none;stroke:#000000;stroke-width:1.5;stroke-linecap:round;stroke-linejoin:round;}
	.st2{fill:none;stroke:#000000;stroke-width:1.5;stroke-linecap:round;stroke-linejoin:round;stroke-dasharray:4.9145,4.9145;}
	.st3{stroke:#000000;stroke-width:1.5;stroke-linecap:round;stroke-linejoin:round;stroke-miterlimit:10;}
	.st4{fill:#FFFFFF;stroke:#000000;stroke-width:1.5;stroke-linecap:round;stroke-linejoin:round;stroke-miterlimit:10;}
	.st5{stroke:#FFFFFF;stroke-width:1.5;stroke-linecap:round;stroke-linejoin:round;stroke-miterlimit:10;}
	.st6{fill:none;stroke:#000000;stroke-width:2;stroke-linecap:round;stroke-linejoin:round;stroke-miterlimit:10;}
</style>
<g id="BACKGROUND">
	<rect x="-479.4" y="63.2" class="st0" width="500" height="500"/>
</g>
<g id="OBJECTS">
	<g>
		<g>
			<rect x="271.4" y="388.4" class="st0" width="59.1" height="59.1"/>
			<g>
				<polyline class="st1" points="330.5,444.9 330.5,447.4 328,447.4 				"/>
				<line class="st2" x1="323.1" y1="447.4" x2="276.4" y2="447.4"/>
				<polyline class="st1" points="273.9,447.4 271.4,447.4 271.4,444.9 				"/>
				<line class="st2" x1="271.4" y1="440" x2="271.4" y2="393.3"/>
				<polyline class="st1" points="271.4,390.9 271.4,388.4 273.9,388.4 				"/>
				<line class="st2" x1="278.8" y1="388.4" x2="325.5" y2="388.4"/>
				<polyline class="st1" points="328,388.4 330.5,388.4 330.5,390.9 				"/>
				<line class="st2" x1="330.5" y1="395.8" x2="330.5" y2="442.5"/>
			</g>
		</g>
		<rect x="267.5" y="384.4" class="st3" width="7.9" height="7.9"/>
		<rect x="326.5" y="384.4" class="st3" width="7.9" height="7.9"/>
		<rect x="267.5" y="443.5" class="st3" width="7.9" height="7.9"/>
		<rect x="326.5" y="443.5" class="st3" width="7.9" height="7.9"/>
	</g>
	<g>
		<path class="st3" d="M95.1,230.9l-16,9.2c-2.3,1.3-3.1,4.2-1.8,6.5l0.1,0.2c1.3,2.3,4.2,3.1,6.5,1.8l16-9.2l16-9.2
			c2.3-1.3,3.1-4.2,1.8-6.5l-0.1-0.2c-1.3-2.3-4.2-3.1-6.5-1.8L95.1,230.9z"/>
		<path class="st3" d="M60.8,165.1l13.9,24.2c3.5-0.6,7.1,1,9,4.3c2.4,4.2,1,9.5-3.2,12c-4.2,2.4-9.5,1-12-3.2
			c-1.9-3.2-1.4-7.2,0.8-9.9l-13.9-24.2l1.8,43.4l20,24l15.5-8.9l15.5-8.9l-10.8-29.3L60.8,165.1z"/>
	</g>
	<g>
		<path class="st3" d="M422.6,232.6l-16,9.2c-2.3,1.3-3.1,4.2-1.8,6.5l0.1,0.2c1.3,2.3,4.2,3.1,6.5,1.8l16-9.2l16-9.2
			c2.3-1.3,3.1-4.2,1.8-6.5l-0.1-0.2c-1.3-2.3-4.2-3.1-6.5-1.8L422.6,232.6z"/>
		<path class="st3" d="M388.2,166.9l13.9,24.2c3.5-0.6,7.1,1,9,4.3c2.4,4.2,1,9.5-3.2,12c-4.2,2.4-9.5,1-12-3.2
			c-1.9-3.2-1.4-7.2,0.8-9.9L382.8,170l1.8,43.4l20,24l15.5-8.9l15.5-8.9l-10.8-29.3L388.2,166.9z"/>
		<path d="M404.9,157.9l-0.3,0.1c-0.4,0.2-0.9,0.1-1.2-0.3l-1.8-3.1c-0.2-0.4-0.1-0.9,0.3-1.2l0.3-0.1c0.4-0.2,0.9-0.1,1.2,0.3
			l1.8,3.1C405.5,157.2,405.4,157.7,404.9,157.9z"/>
		<path d="M411.8,169.9l-0.3,0.1c-0.4,0.2-0.9,0.1-1.2-0.3l-1.8-3.1c-0.2-0.4-0.1-0.9,0.3-1.2l0.3-0.1c0.4-0.2,0.9-0.1,1.2,0.3
			l1.8,3.1C412.4,169.1,412.2,169.6,411.8,169.9z"/>
		<path d="M408.2,157.6l-0.3-0.1c-0.5-0.1-0.7-0.6-0.6-1l0.9-3.5c0.1-0.5,0.6-0.7,1-0.6l0.3,0.1c0.5,0.1,0.7,0.6,0.6,1l-0.9,3.5
			C409.1,157.4,408.6,157.7,408.2,157.6z"/>
		<path d="M404.6,170.9l-0.3-0.1c-0.5-0.1-0.7-0.6-0.6-1l0.9-3.5c0.1-0.5,0.6-0.7,1-0.6l0.3,0.1c0.5,0.1,0.7,0.6,0.6,1l-0.9,3.5
			C405.5,170.8,405.1,171,404.6,170.9z"/>
		<path d="M410.7,159.7l-0.1-0.3c-0.2-0.4-0.1-0.9,0.3-1.2l3.1-1.8c0.4-0.2,0.9-0.1,1.2,0.3l0.1,0.3c0.2,0.4,0.1,0.9-0.3,1.2
			l-3.1,1.8C411.5,160.2,410.9,160.1,410.7,159.7z"/>
		<path d="M398.8,166.6l-0.1-0.3c-0.2-0.4-0.1-0.9,0.3-1.2l3.1-1.8c0.4-0.2,0.9-0.1,1.2,0.3l0.1,0.3c0.2,0.4,0.1,0.9-0.3,1.2
			l-3.1,1.8C399.5,167.1,399,167,398.8,166.6z"/>
		<path d="M411,162.9l0.1-0.3c0.1-0.5,0.6-0.7,1-0.6l3.5,0.9c0.5,0.1,0.7,0.6,0.6,1l-0.1,0.3c-0.1,0.5-0.6,0.7-1,0.6l-3.5-0.9
			C411.2,163.8,410.9,163.4,411,162.9z"/>
		<path d="M397.7,159.3l0.1-0.3c0.1-0.5,0.6-0.7,1-0.6l3.5,0.9c0.5,0.1,0.7,0.6,0.6,1l-0.1,0.3c-0.1,0.5-0.6,0.7-1,0.6l-3.5-0.9
			C397.8,160.3,397.6,159.8,397.7,159.3z"/>
	</g>
	<g>
		<path class="st3" d="M203.7,233l-16,9.2c-2.3,1.3-3.1,4.2-1.8,6.5l0.1,0.2c1.3,2.3,4.2,3.1,6.5,1.8l16-9.2l16-9.2
			c2.3-1.3,3.1-4.2,1.8-6.5l-0.1-0.2c-1.3-2.3-4.2-3.1-6.5-1.8L203.7,233z"/>
		<path class="st3" d="M169.3,167.3l13.9,24.2c3.5-0.6,7.1,1,9,4.3c2.4,4.2,1,9.5-3.2,12s-9.5,1-12-3.2c-1.9-3.2-1.4-7.2,0.8-9.9
			l-13.9-24.2l1.8,43.4l20,24l15.5-8.9l15.5-8.9L206,190.5L169.3,167.3z"/>
		<path class="st3" d="M186.6,170L186.6,170c-1.4,0-2.6-1.1-2.6-2.6v-13.6c0-1.4,1.1-2.6,2.6-2.6l0,0c1.4,0,2.6,1.1,2.6,2.6v13.6
			C189.2,168.8,188,170,186.6,170z"/>
		<path class="st3" d="M177.2,160.6L177.2,160.6c0-1.4,1.1-2.6,2.6-2.6h13.6c1.4,0,2.6,1.1,2.6,2.6l0,0c0,1.4-1.1,2.6-2.6,2.6h-13.6
			C178.4,163.2,177.2,162,177.2,160.6z"/>
	</g>
	<g>
		<path class="st3" d="M318.9,233.2l-16,9.2c-2.3,1.3-3.1,4.2-1.8,6.5l0.1,0.2c1.3,2.3,4.2,3.1,6.5,1.8l16-9.2l16-9.2
			c2.3-1.3,3.1-4.2,1.8-6.5l-0.1-0.2c-1.3-2.3-4.2-3.1-6.5-1.8L318.9,233.2z"/>
		<path class="st3" d="M284.5,167.5l13.9,24.2c3.5-0.6,7.1,1,9,4.3c2.4,4.2,1,9.5-3.2,12c-4.2,2.4-9.5,1-12-3.2
			c-1.9-3.2-1.4-7.2,0.8-9.9l-13.9-24.2L281,214l20,24l15.5-8.9l15.5-8.9l-10.8-29.3L284.5,167.5z"/>
		<path class="st3" d="M292.7,162.4L292.7,162.4c0-1.4,1.1-2.6,2.6-2.6h13.6c1.4,0,2.6,1.1,2.6,2.6l0,0c0,1.4-1.1,2.6-2.6,2.6h-13.6
			C293.8,165,292.7,163.8,292.7,162.4z"/>
	</g>
	<g>
		<circle class="st3" cx="87.1" cy="323.8" r="36.7"/>
		<circle class="st4" cx="87.1" cy="323.8" r="30.4"/>
		<path class="st5" d="M86.9,297.1L86.9,297.1c-2.2,0-3.9-1.8-3.9-3.9v-7.1c0-2.2,1.8-3.9,3.9-3.9l0,0c2.2,0,3.9,1.8,3.9,3.9v7.1
			C90.8,295.3,89,297.1,86.9,297.1z"/>
		<path class="st5" d="M86.9,365.5L86.9,365.5c-2.2,0-3.9-1.8-3.9-3.9v-7.1c0-2.2,1.8-3.9,3.9-3.9l0,0c2.2,0,3.9,1.8,3.9,3.9v7.1
			C90.8,363.8,89,365.5,86.9,365.5z"/>
		<path class="st5" d="M113.6,323.8L113.6,323.8c0-2.2,1.8-3.9,3.9-3.9h7.1c2.2,0,3.9,1.8,3.9,3.9l0,0c0,2.2-1.8,3.9-3.9,3.9h-7.1
			C115.4,327.8,113.6,326,113.6,323.8z"/>
		<path class="st5" d="M45.2,323.8L45.2,323.8c0-2.2,1.8-3.9,3.9-3.9h7.1c2.2,0,3.9,1.8,3.9,3.9l0,0c0,2.2-1.8,3.9-3.9,3.9h-7.1
			C46.9,327.8,45.2,326,45.2,323.8z"/>
		<polyline class="st6" points="86.9,302.5 86.9,323.8 100.8,323.8 		"/>
	</g>
	<g>
		<g>
			<rect x="165.9" y="294.3" class="st0" width="59.1" height="59.1"/>
			<g>
				<polyline class="st1" points="224.9,350.9 224.9,353.4 222.4,353.4 				"/>
				<line class="st2" x1="217.5" y1="353.4" x2="170.8" y2="353.4"/>
				<polyline class="st1" points="168.4,353.4 165.9,353.4 165.9,350.9 				"/>
				<line class="st2" x1="165.9" y1="346" x2="165.9" y2="299.3"/>
				<polyline class="st1" points="165.9,296.8 165.9,294.3 168.4,294.3 				"/>
				<line class="st2" x1="173.3" y1="294.3" x2="220" y2="294.3"/>
				<polyline class="st1" points="222.4,294.3 224.9,294.3 224.9,296.8 				"/>
				<line class="st2" x1="224.9" y1="301.7" x2="224.9" y2="348.4"/>
			</g>
		</g>
		<rect x="161.9" y="290.3" class="st3" width="7.9" height="7.9"/>
		<rect x="221" y="290.3" class="st3" width="7.9" height="7.9"/>
		<rect x="161.9" y="349.4" class="st3" width="7.9" height="7.9"/>
		<rect x="221" y="349.4" class="st3" width="7.9" height="7.9"/>
	</g>
	<g>
		<polygon class="st4" points="403.5,303.9 403.5,348.9 420.6,333.5 442.4,326.4 		"/>
		<polygon class="st3" points="386.2,303.9 386.2,348.9 403.3,333.5 425.2,326.4 		"/>
	</g>
	<g>
		<rect x="276.9" y="393.6" class="st4" width="48.2" height="48.2"/>
		<polygon class="st3" points="319.8,430.9 319.8,455.1 329,446.8 340.7,443 		"/>
	</g>
	<g>
		<polygon class="st3" points="60.9,60.4 60.9,120.3 83.7,99.9 112.8,90.4 		"/>
	</g>
	<g>
		<path d="M175.1,54l-0.5,0.3c-0.8,0.5-1.8,0.2-2.2-0.6l-3.5-6c-0.5-0.8-0.2-1.8,0.6-2.2l0.5-0.3c0.8-0.5,1.8-0.2,2.2,0.6l3.5,6
			C176.2,52.5,175.9,53.5,175.1,54z"/>
		<path d="M181.4,53.3l-0.5-0.1c-0.9-0.2-1.4-1.1-1.2-2l1.8-6.7c0.2-0.9,1.1-1.4,2-1.2l0.5,0.1c0.9,0.2,1.4,1.1,1.2,2l-1.8,6.7
			C183.2,53.1,182.3,53.6,181.4,53.3z"/>
		<path d="M186.2,57.4l-0.3-0.5c-0.5-0.8-0.2-1.8,0.6-2.2l6-3.5c0.8-0.5,1.8-0.2,2.2,0.6l0.3,0.5c0.5,0.8,0.2,1.8-0.6,2.2l-6,3.5
			C187.7,58.4,186.7,58.1,186.2,57.4z"/>
		<path d="M163.2,70.7l-0.3-0.5c-0.5-0.8-0.2-1.8,0.6-2.2l6-3.5c0.8-0.5,1.8-0.2,2.2,0.6l0.3,0.5c0.5,0.8,0.2,1.8-0.6,2.2l-6,3.5
			C164.6,71.7,163.6,71.5,163.2,70.7z"/>
		<path d="M161.1,56.7l0.1-0.5c0.2-0.9,1.1-1.4,2-1.2l6.7,1.8c0.9,0.2,1.4,1.1,1.2,2l-0.1,0.5c-0.2,0.9-1.1,1.4-2,1.2l-6.7-1.8
			C161.4,58.5,160.9,57.6,161.1,56.7z"/>
		<polygon class="st3" points="177.9,59.4 177.9,119.2 200.7,98.8 229.8,89.3 		"/>
	</g>
	<g>
		<path class="st3" d="M195.4,446.8L195.4,446.8c-2.6,0-4.8-2.2-4.8-4.8v-37c0-2.6,2.2-4.8,4.8-4.8l0,0c2.6,0,4.8,2.2,4.8,4.8v37
			C200.2,444.6,198.1,446.8,195.4,446.8z"/>
		<polygon class="st3" points="195.4,380.2 178.3,409.9 195.4,406.2 212.5,409.9 		"/>
		<polygon class="st3" points="195.4,461.6 212.5,431.9 195.4,435.6 178.3,431.9 		"/>
	</g>
	<g>
		<path class="st3" d="M299.5,59.1L299.5,59.1c-1.4,0-2.6-1.1-2.6-2.6V42.9c0-1.4,1.1-2.6,2.6-2.6l0,0c1.4,0,2.6,1.1,2.6,2.6v13.6
			C302,57.9,300.9,59.1,299.5,59.1z"/>
		<path class="st3" d="M290.1,49.7L290.1,49.7c0-1.4,1.1-2.6,2.6-2.6h13.6c1.4,0,2.6,1.1,2.6,2.6l0,0c0,1.4-1.1,2.6-2.6,2.6h-13.6
			C291.2,52.2,290.1,51.1,290.1,49.7z"/>
		<polygon class="st3" points="284.7,59.6 284.7,119.5 307.4,99.1 336.5,89.6 		"/>
	</g>
	<g>
		<ellipse transform="matrix(0.4291 -0.9033 0.9033 0.4291 173.3335 399.9218)" class="st4" cx="403" cy="62.8" rx="27" ry="27"/>
		
			<ellipse transform="matrix(0.7552 -0.6555 0.6555 0.7552 57.4772 279.5806)" class="st4" cx="403" cy="62.8" rx="20.4" ry="20.4"/>
		<ellipse transform="matrix(0.9377 -0.3474 0.3474 0.9377 3.268 143.9122)" class="st4" cx="403" cy="62.8" rx="12.7" ry="12.7"/>
		<polygon class="st3" points="400.8,58.9 400.8,118.8 423.5,98.4 452.6,88.9 		"/>
	</g>
	<g>
		<polygon class="st3" points="284.6,288.6 284.6,326.4 298.9,313.5 317.3,307.5 		"/>
		<path class="st3" d="M299.7,323.2c-8.4,8.4-8.4,22.1,0,30.6c8.4,8.4,22.1,8.4,30.6,0s8.4-22.1,0-30.6
			C321.9,314.8,308.2,314.8,299.7,323.2z M327.6,351c-6.9,6.9-18.1,6.9-25,0c-6.9-6.9-6.9-18.1,0-25c6.9-6.9,18.1-6.9,25,0
			C334.5,332.9,334.5,344.1,327.6,351z"/>
		
			<rect x="294.9" y="336" transform="matrix(0.7071 -0.7071 0.7071 0.7071 -147.095 321.9104)" class="st3" width="40.3" height="5"/>
	</g>
	<g>
		<g>
			<polygon class="st4" points="94.2,386.7 56.6,386.7 56.6,455.1 108,455.1 108,400.5 			"/>
			<polygon class="st4" points="94.2,400.5 108,400.5 94.2,386.7 			"/>
		</g>
		<g>
			<path class="st3" d="M108,464.2L108,464.2c-1.4,0-2.5-1.1-2.5-2.5v-13.2c0-1.4,1.1-2.5,2.5-2.5l0,0c1.4,0,2.5,1.1,2.5,2.5v13.2
				C110.5,463.1,109.4,464.2,108,464.2z"/>
			<path class="st3" d="M98.9,455.1L98.9,455.1c0-1.4,1.1-2.5,2.5-2.5h13.2c1.4,0,2.5,1.1,2.5,2.5l0,0c0,1.4-1.1,2.5-2.5,2.5h-13.2
				C100,457.6,98.9,456.5,98.9,455.1z"/>
		</g>
	</g>
	<g>
		<polygon class="st3" points="414.3,383 401,406.1 414.3,403.2 427.7,406.1 		"/>
		<polygon class="st3" points="414.3,464 427.7,440.9 414.3,443.7 401,440.9 		"/>
		<polygon class="st3" points="454.8,423.5 431.8,410.1 434.6,423.5 431.8,436.8 		"/>
		<polygon class="st3" points="373.8,423.5 396.9,436.8 394.1,423.5 396.9,410.1 		"/>
		<circle class="st3" cx="414.3" cy="423.5" r="9.4"/>
	</g>
	<g>
		<g>
			<rect x="300.8" y="1773.3" class="st0" width="59.1" height="59.1"/>
			<g>
				<polyline class="st1" points="359.8,1829.9 359.8,1832.4 357.3,1832.4 				"/>
				<line class="st2" x1="352.4" y1="1832.4" x2="305.7" y2="1832.4"/>
				<polyline class="st1" points="303.3,1832.4 300.8,1832.4 300.8,1829.9 				"/>
				<line class="st2" x1="300.8" y1="1825" x2="300.8" y2="1778.3"/>
				<polyline class="st1" points="300.8,1775.8 300.8,1773.3 303.3,1773.3 				"/>
				<line class="st2" x1="308.2" y1="1773.3" x2="354.9" y2="1773.3"/>
				<polyline class="st1" points="357.3,1773.3 359.8,1773.3 359.8,1775.8 				"/>
				<line class="st2" x1="359.8" y1="1780.7" x2="359.8" y2="1827.4"/>
			</g>
		</g>
		<rect x="296.8" y="1769.4" class="st3" width="7.9" height="7.9"/>
		<rect x="355.9" y="1769.4" class="st3" width="7.9" height="7.9"/>
		<rect x="296.8" y="1828.4" class="st3" width="7.9" height="7.9"/>
		<rect x="355.9" y="1828.4" class="st3" width="7.9" height="7.9"/>
	</g>
	<g>
		<rect x="306.2" y="1778.6" class="st4" width="48.2" height="48.2"/>
		<polygon class="st3" points="349.1,1815.8 349.1,1840 358.3,1831.7 370.1,1827.9 		"/>
	</g>
</g>
</svg>
