<svg xmlns="http://www.w3.org/2000/svg" width="30" height="32" viewBox="-0 0 13.16 17.7" fill="none" class="css-1170n61"><path fill-rule="evenodd" clip-rule="evenodd" d="M 10.314 3.7018 c 0.0003 0.3143 0.2552 0.5687 0.5693 0.5685 c 0.1028 0 0.2038 -0.028 0.292 -0.081 l 1.7068 -1.024 c 0.1713 -0.1028 0.2762 -0.2878 0.2765 -0.4875 V 0.591 c -0.0005 -0.3143 -0.2557 -0.5685 -0.57 -0.5677 c -0.1028 0.0003 -0.2032 0.0283 -0.2915 0.081 l -1.7068 1.024 c -0.1713 0.1028 -0.2762 0.2878 -0.2765 0.4875 v 2.0868 V 3.7018 z M 0.143 3.7273 L 0.143 3.7273 c -0.1087 0.1047 -0.143 0.1952 -0.143 0.395 v 2.1293 v -0.043 c 0.0003 0.3143 0.1178 0.7258 0.5693 0.611 c 0.4005 -0.243 1.4265 -0.8438 1.4265 -0.8438 l 1.5235 -0.8662 c 0.0872 -0.0503 0.186 -0.0767 0.2868 -0.0762 c 0.3143 0.0013 0.568 0.257 0.5667 0.5713 l -0.0085 2.9588 l 0 0 c 0 0.0025 0.002 0.0045 0.0045 0.0045 c 0.0045 0 0.0065 0.0063 0.0023 0.0085 L 0.0177 11.0768 c -0.0023 0.0013 -0.0035 0.0035 -0.0035 0.0057 v 0.0035 c 0 0.004 -0.004 0.0057 -0.0068 0.004 c -0.0035 -0.0017 -0.0075 0.0005 -0.0075 0.004 v 3.018 c 0 0.204 0.1095 0.3925 0.2868 0.4938 L 5.5725 17.6288 c 0.1752 0.1003 0.3905 0.1 0.5655 -0.0005 l 6.735 -3.8685 c 0.1765 -0.1015 0.2855 -0.2895 0.2855 -0.4933 V 7.2813 c 0 -0.0995 -0.026 -0.197 -0.0755 -0.2833 c -0.1565 -0.2725 -0.5042 -0.3665 -0.7765 -0.21 l -1.7845 1.0252 c -0.176 0.101 -0.285 0.2885 -0.2855 0.4915 l -0.0102 3.2923 c -0.0008 0.203 -0.1095 0.3905 -0.2855 0.4915 l -3.803 2.184 c -0.1748 0.1005 -0.3898 0.101 -0.565 0.0013 l -1.7818 -1.0143 c -0.0878 -0.05 -0.1605 -0.1225 -0.211 -0.21 c -0.157 -0.2723 -0.0635 -0.62 0.2087 -0.777 l 3.2302 -1.8603 c 0.1765 -0.1015 0.285 -0.2898 0.285 -0.4933 V 0.5695 c 0 -0.0995 -0.026 -0.1975 -0.0755 -0.2838 c -0.1565 -0.2725 -0.5042 -0.3665 -0.7765 -0.21 L 0.2835 3.6193" fill="#007FFF"></path></svg>
