<?xml version="1.0" encoding="UTF-8"?>
<svg id="a" data-name="Layer 1" xmlns="http://www.w3.org/2000/svg" viewBox="0 0 35.68 48">
  <path d="M 27.96 10.04 C 27.96 10.89 28.65 11.58 29.5 11.58 C 29.78 11.58 30.05 11.5 30.29 11.36 L 34.92 8.58 C 35.38 8.3 35.67 7.8 35.67 7.26 V 1.6 C 35.67 0.75 34.98 0.06 34.12 0.06 C 33.84 0.06 33.57 0.14 33.33 0.28 L 28.7 3.06 C 28.24 3.34 27.95 3.84 27.95 4.38 V 10.04 H 27.95 S 27.95 10.04 27.95 10.04 Z M 0.38 10.11 H 0.39 C 0.09 10.39 0 10.63 0 11.18 V 16.95 V 16.83 C 0 17.68 0.32 18.8 1.54 18.49 C 2.63 17.83 5.41 16.2 5.41 16.2 L 9.54 13.85 C 9.78 13.71 10.04 13.64 10.32 13.64 C 11.17 13.64 11.86 14.34 11.86 15.19 L 11.84 23.21 H 11.84 S 11.84 23.22 11.85 23.22 C 11.86 23.22 11.87 23.24 11.85 23.24 L 0.05 30.03 S 0.05 30.03 0.05 30.05 H 0.04 S 0.03 30.07 0.02 30.07 C 0.02 30.07 0 30.07 0 30.08 V 38.26 C 0 38.81 0.3 39.32 0.78 39.6 L 15.11 47.8 C 15.59 48.07 16.17 48.07 16.64 47.8 L 34.9 37.31 C 35.38 37.03 35.67 36.53 35.67 35.97 V 19.74 C 35.67 19.47 35.6 19.21 35.47 18.97 C 35.05 18.23 34.1 17.98 33.36 18.4 L 28.52 21.18 C 28.04 21.45 27.75 21.96 27.75 22.51 L 27.72 31.44 C 27.72 31.99 27.42 32.5 26.95 32.77 L 16.64 38.69 C 16.17 38.96 15.58 38.96 15.11 38.69 C 15.11 38.69 10.07 35.84 9.47 35.51 C 8.93 35.25 7.71 34.79 7.71 34.79 C 7.71 34.79 9.72 33.58 10.28 33.26 L 19.04 28.22 C 19.52 27.94 19.81 27.43 19.81 26.88 V 1.54 C 19.81 1.27 19.74 1 19.61 0.77 C 19.19 0.03 18.24 -0.22 17.5 0.2 L 0.77 9.81" style="fill: #007fff;"/>
  <path d="m.05,30.03s0,0,0,.02H.04s-.01.02-.02.02c0,0-.02,0-.02.01v8.18c0,.55.3,1.06.78,1.34l14.33,8.2c.23.13.62.2.88.2v-1.99s0-4.41-.03-7.11c-.29.02-.59-.05-.85-.2l-4.83-2.75" style="fill: #00b0ff;"/>
</svg>
