<svg xmlns="http://www.w3.org/2000/svg" viewBox="0 0 121.5 183" xmlns:bx="https://boxy-svg.com">
  <defs>
    <bx:grid x="0" y="0" width="21.844" height="21.844"></bx:grid>
    <bx:guide x="21.87" y="183.06" angle="90"></bx:guide>
  </defs>
  <path d="M 110.653 148.643 C 110.653 148.643 110.653 148.635 110.657 148.624 C 110.661 148.616 110.672 148.605 110.691 148.605 C 110.71 148.605 110.729 148.586 110.733 148.567 C 110.737 148.548 110.729 148.529 110.691 148.529 L 88.224 135.601 L 65.757 122.672 C 65.757 122.672 65.757 122.672 65.757 122.665 C 65.757 122.657 65.757 122.638 65.757 122.6 L 65.738 122.6 L 65.719 122.6 C 65.719 122.6 65.711 122.581 65.696 122.562 C 65.68 122.543 65.661 122.524 65.642 122.524 C 65.642 122.524 65.623 122.524 65.604 122.52 C 65.585 122.516 65.566 122.505 65.566 122.486 L 66.366 88.4 L 94.926 104.55 L 121.392 119.972" style="stroke-width: 3.808; fill: rgb(67, 176, 255); transform-box: fill-box; transform-origin: 50% 50%;" transform="matrix(-1, 0, 0, -1, -0.000057, 0)"></path>
  <g id="a" transform="matrix(3.808008, 0, 0, 3.808008, -1752.91748, -394.899261)" style="">
    <path d="M 460.704 113.892 L 460.709 113.892 L 460.714 113.892 C 460.564 114.032 460.466 114.162 460.406 114.326 C 460.346 114.49 460.324 114.687 460.324 114.962 L 460.324 117.847 L 460.324 120.732 L 460.324 120.672 L 460.324 120.612 C 460.324 121.037 460.404 121.53 460.637 121.877 C 460.87 122.224 461.255 122.427 461.864 122.272 C 462.409 121.942 463.376 121.369 464.208 120.88 C 465.039 120.39 465.734 119.982 465.734 119.982 L 467.799 118.807 L 469.864 117.632 C 469.984 117.562 470.109 117.509 470.239 117.475 C 470.369 117.44 470.504 117.422 470.644 117.422 C 471.069 117.422 471.333 117.465 471.735 117.753 C 472.137 118.041 472.384 118.526 472.384 118.951 L 472.403 126.893 L 466.274 130.417 L 460.374 133.812 C 460.374 133.812 460.374 133.812 460.374 133.814 C 460.374 133.816 460.374 133.821 460.374 133.831 L 460.369 133.831 L 460.364 133.831 C 460.364 133.831 460.362 133.836 460.358 133.841 C 460.354 133.846 460.349 133.851 460.344 133.851 C 460.344 133.851 460.339 133.851 460.334 133.852 C 460.329 133.853 460.324 133.856 460.324 133.861 L 460.324 137.951 L 460.324 142.041 C 460.324 142.316 460.399 142.581 460.534 142.812 C 460.669 143.043 460.864 143.241 461.104 143.381 L 468.269 147.481 L 475.434 151.581 C 475.674 151.716 475.939 151.783 476.203 151.783 C 476.467 151.783 476.729 151.716 476.964 151.581 L 492.183 142.81 C 492.205 142.424 492.225 134.486 492.19 133.799 L 480.832 140.239 L 476.964 142.471 C 476.729 142.606 476.464 142.673 476.199 142.673 C 475.934 142.673 475.669 142.606 475.434 142.471 C 475.434 142.471 474.174 141.758 472.839 141.005 C 471.504 140.251 470.094 139.456 469.794 139.291 C 469.524 139.161 469.084 138.981 468.712 138.834 C 468.339 138.686 468.034 138.571 468.034 138.571 C 468.034 138.571 468.536 138.268 469.109 137.926 C 469.681 137.583 470.324 137.201 470.604 137.041 L 474.984 134.521 L 479.364 132.001 C 479.604 131.861 479.797 131.663 479.929 131.432 C 480.061 131.201 480.134 130.936 480.134 130.661 L 480.134 117.991 L 480.134 105.321 C 480.134 105.186 480.117 105.051 480.083 104.921 C 480.049 104.791 479.999 104.666 479.934 104.551 C 479.724 104.181 479.381 103.933 478.999 103.831 C 478.616 103.729 478.194 103.771 477.824 103.981 L 469.459 108.786 L 461.094 113.591" style="fill: rgb(0, 127, 255); stroke-width: 1;"></path>
    <path d="M 460.374 133.812 C 460.374 133.812 460.374 133.812 460.374 133.832 L 460.364 133.832 C 460.364 133.832 460.354 133.852 460.344 133.852 C 460.344 133.852 460.324 133.852 460.324 133.862 L 460.324 142.042 C 460.324 142.592 460.624 143.102 461.104 143.382 L 475.434 151.582 C 475.664 151.712 476.054 151.782 476.314 151.782 L 476.314 149.792 C 476.314 149.792 476.314 145.382 476.284 142.682 C 475.994 142.702 475.694 142.632 475.434 142.482 L 470.604 139.732" style="fill: rgb(0, 176, 255); stroke-width: 1;"></path>
  </g>
  <path d="M 47.402 93.131 L 47.421 93.131 L 47.44 93.131 C 46.869 92.598 46.496 92.103 46.267 91.478 C 46.039 90.854 45.955 90.104 45.955 89.056 L 45.955 78.07 L 45.955 67.084 L 45.955 67.313 L 45.955 67.541 C 45.955 65.923 46.26 64.045 47.147 62.724 C 48.034 61.403 49.5 60.63 51.82 61.22 C 53.895 62.476 57.577 64.658 60.746 66.521 C 63.91 68.386 66.557 69.94 66.557 69.94 L 74.42 74.415 L 83.155 79.208 C 83.612 79.474 84.088 79.676 84.583 79.806 C 85.078 79.939 85.592 80.008 86.125 80.008 C 87.743 80.008 89.209 79.341 90.272 78.271 C 91.334 77.201 91.989 75.724 91.989 74.105 L 91.913 43.565 L 68.613 30.204 L 46.146 17.275 C 46.146 17.275 46.146 17.275 46.146 17.268 C 46.146 17.26 46.146 17.241 46.146 17.203 L 46.127 17.203 L 46.108 17.203 C 46.108 17.203 46.1 17.184 46.085 17.165 C 46.069 17.146 46.05 17.127 46.031 17.127 C 46.031 17.127 46.012 17.127 45.993 17.123 C 45.974 17.119 45.955 17.108 45.955 17.089 L 76.5 0 L 101.781 14.575 L 121.255 25.57 L 121.392 125.769 C 121.392 126.283 121.327 126.797 121.198 127.293 C 121.068 127.788 120.878 128.264 120.63 128.701 C 119.831 130.11 118.524 131.055 117.07 131.443 C 115.611 131.832 114.004 131.672 112.595 130.872 L 80.741 112.575 L 48.887 94.277" style="stroke-width: 3.808; fill: rgb(67, 176, 255); transform-box: fill-box; transform-origin: 50% 50%;" transform="matrix(-1, 0, 0, -1, -0.000038, -0.000016)"></path>
</svg>
