<?xml version="1.0" encoding="UTF-8"?>
<svg id="Layer_1" xmlns="http://www.w3.org/2000/svg" xmlns:bx="https://boxy-svg.com" version="1.1" viewBox="0 0 121.5 183">
  <!-- Generator: Adobe Illustrator 30.2.1, SVG Export Plug-In . SVG Version: 2.1.1 Build 1)  -->
  <defs>
    <style>
      .st0 {
        display: none;
      }

      .st0, .st1 {
        fill: #43b0ff;
      }

      .st2 {
        fill: #007fff;
      }

      .st3 {
        fill: #00b0ff;
      }
    </style>
  </defs>
  <path class="st0" d="M76.41,84.54s0,0,0,.02c0,0-.01.02-.03.02s-.04.02-.04.04c0,.02,0,.04.04.04l22.47,12.93,22.47,12.93h0v.07h.04s0,.02.02.04c.02.02.03.04.05.04,0,0,.02,0,.04,0,.02,0,.04.01.04.03l-.8,34.09-28.56-16.15-26.47-15.42"/>
  <path class="st2" d="M1.45,38.8h.04c-.57.53-.94,1.03-1.17,1.65C.08,41.08,0,41.83,0,42.88v21.97-.46C0,66.01.3,67.89,1.19,69.21s2.35,2.09,4.67,1.5c2.08-1.26,5.76-3.44,8.93-5.3,3.16-1.87,5.81-3.42,5.81-3.42l7.86-4.47,7.86-4.47c.46-.27.93-.47,1.43-.6.49-.13,1.01-.2,1.54-.2,1.62,0,2.62.16,4.15,1.26,1.53,1.1,2.47,2.94,2.47,4.56l.07,30.24-23.34,13.42L.19,114.66H.19v.07h-.04s0,.02-.02.04c-.02.02-.03.04-.05.04,0,0-.02,0-.04,0-.02,0-.04.02-.04.03v31.15c0,1.05.29,2.06.8,2.94s1.26,1.63,2.17,2.17l27.28,15.61,27.28,15.61c.91.51,1.92.77,2.93.77s2-.26,2.9-.77l-8.1-1.13c.08-1.47.16-31.7.03-34.31l-6.48,7.77,14.55-7.02c-.89.51-1.9.77-2.91.77s-2.02-.26-2.91-.77c0,0-4.8-2.72-9.88-5.58-5.08-2.87-10.45-5.9-11.6-6.53-1.03-.5-2.7-1.18-4.12-1.74-1.42-.56-2.58-1-2.58-1,0,0,1.91-1.15,4.09-2.46,2.18-1.31,4.63-2.76,5.69-3.37l16.68-9.6,16.68-9.6c.91-.53,1.65-1.29,2.15-2.17.5-.88.78-1.89.78-2.94V6.16c0-.51-.06-1.03-.19-1.52-.13-.5-.32-.97-.57-1.41-.8-1.41-2.11-2.35-3.56-2.74-1.46-.39-3.07-.23-4.47.57l-31.85,18.3L2.93,37.66"/>
  <path class="st1" d="M120.05,38.51h-.04c.57.53.94,1.03,1.17,1.65.23.62.31,1.37.31,2.42v21.97-.46c0,1.62-.3,3.5-1.19,4.82s-2.35,2.09-4.67,1.5c-2.08-1.26-5.76-3.44-8.93-5.3-3.16-1.86-5.81-3.42-5.81-3.42l-7.86-4.47-8.74-4.79c-.46-.27-.93-.47-1.43-.6-.5-.13-1.01-.2-1.54-.2-1.62,0-3.08.67-4.15,1.74-1.06,1.07-1.72,2.55-1.72,4.17l.08,30.54,23.3,13.36,22.47,12.93h0v.07h.04s0,.02.02.04c.02.02.03.04.05.04,0,0,.02,0,.04,0,.02,0,.04.01.04.03l-30.54,17.09-25.28-14.57-19.47-10.99-.14-100.2c0-.51.06-1.03.19-1.52.13-.5.32-.97.57-1.41.8-1.41,2.11-2.35,3.56-2.74,1.46-.39,3.07-.23,4.47.57l31.85,18.3,31.85,18.3"/>
  <path class="st2" d="M.19,114.66H.19v.07h-.04s0,.02-.02.04c-.02.02-.03.04-.05.04,0,0-.02,0-.04,0-.02,0-.04.02-.04.03v31.15c0,1.05.29,2.06.8,2.94s1.26,1.63,2.17,2.17l27.28,15.61,27.28,15.61c.91.51,1.92.77,2.93.77s2-.26,2.9-.77l57.95-33.4c.08-1.47.16-31.7.03-34.31l-43.25,24.52-14.73,8.5c-.89.51-1.9.77-2.91.77s-2.02-.26-2.91-.77c0,0-4.8-2.72-9.88-5.58-5.08-2.87-10.45-5.9-11.6-6.53-1.03-.5-2.7-1.18-4.12-1.74-1.42-.56-2.58-1-2.58-1,0,0-5.5,8.51-3.32,7.21,2.18-1.31-6.03-5.48-4.96-6.09l1.8-1.8"/>
  <path class="st3" d="M.19,114.66v.08h-.04s-.04.08-.08.08C.08,114.81,0,114.81,0,114.85v31.15C0,148.09,1.14,150.03,2.97,151.1l54.57,31.23c.88.5,2.36.76,3.35.76v-7.58s0-16.79-.11-27.07c-1.1.08-2.25-.19-3.24-.76l-18.39-10.47"/>
</svg>